<svg width="24" height="24" viewBox="0 0 24 24" fill="none" xmlns="http://www.w3.org/2000/svg">
<path d="M12.8652 3.98711C12.9391 3.99252 13.0076 3.99792 13.0653 4.00604C17.1235 4.63059 18.99 6.55292 19.5064 10.6427C19.5154 10.7121 19.5172 10.7968 19.5181 10.886C19.5235 11.206 19.5343 11.8711 20.2481 11.8846H20.2697C20.4941 11.8846 20.6716 11.817 20.7996 11.6836C21.0213 11.452 21.0069 11.1068 20.9934 10.8293C20.9907 10.7608 20.988 10.6968 20.988 10.64C21.0403 6.45829 17.4191 2.665 13.241 2.52441C13.223 2.52441 13.2067 2.52441 13.1905 2.52712C13.1741 2.52919 13.1575 2.53009 13.141 2.52982C13.0986 2.52982 13.0481 2.52621 12.9932 2.52261C12.9283 2.5181 12.8535 2.5127 12.7769 2.5127C12.1118 2.5127 11.9856 2.98584 11.9694 3.26793C11.9324 3.91952 12.5624 3.96548 12.8652 3.98711ZM19.3108 15.9284C19.2237 15.8622 19.1375 15.7949 19.0521 15.7265C18.6087 15.3697 18.1374 15.0416 17.6823 14.7235L17.3984 14.5252C16.8144 14.1151 16.2899 13.916 15.7942 13.916C15.1255 13.916 14.5433 14.2855 14.062 15.0128C13.8493 15.3354 13.5907 15.4922 13.2725 15.4922C13.0516 15.4845 12.8347 15.4301 12.6363 15.3327C10.7527 14.4783 9.40626 13.168 8.6366 11.4385C8.2644 10.6021 8.38516 10.056 9.03945 9.61079C9.41166 9.35845 10.1029 8.88891 10.0551 7.98858C9.99927 6.96748 7.74529 3.89338 6.79539 3.54461C6.38931 3.39648 5.94419 3.3952 5.53727 3.541C4.44588 3.9078 3.66361 4.55308 3.27157 5.40475C2.89306 6.22847 2.91108 7.19549 3.32024 8.20127C4.50536 11.1095 6.17084 13.6456 8.27161 15.7383C10.3273 17.7868 12.8544 19.464 15.7816 20.7248C16.0456 20.8383 16.3223 20.9005 16.5251 20.9456C16.5936 20.9609 16.6531 20.9744 16.6963 20.9861C16.7201 20.9925 16.7447 20.9959 16.7693 20.996H16.7927C18.1698 20.996 19.8236 19.7379 20.331 18.3041C20.7762 17.0478 19.9633 16.4268 19.3108 15.9284ZM13.4744 7.30995C13.2392 7.31536 12.748 7.32797 12.5759 7.82726C12.4948 8.06158 12.5047 8.26345 12.6047 8.43018C12.7507 8.67351 13.031 8.74922 13.2852 8.79067C14.2089 8.93847 14.6839 9.44857 14.7785 10.3976C14.8227 10.8392 15.121 11.1483 15.5022 11.1483C15.5311 11.1482 15.56 11.1464 15.5887 11.1429C16.0483 11.0888 16.2709 10.7509 16.2511 10.1389C16.2583 9.50084 15.9249 8.77625 15.3562 8.19946C14.7866 7.62087 14.0999 7.29463 13.4744 7.30995Z" fill="#936B18"/>
</svg>
