<svg width="24" height="24" viewBox="0 0 24 24" fill="none" xmlns="http://www.w3.org/2000/svg">
<path d="M5.00451 9.86001C6.92436 14.0408 10.3357 17.3544 14.5705 19.152L15.2505 19.455C16.0035 19.7903 16.8508 19.8491 17.6429 19.621C18.435 19.3929 19.1212 18.8925 19.5805 18.208L20.4695 16.884C20.6086 16.6764 20.6649 16.4242 20.6274 16.1771C20.5898 15.93 20.4611 15.7059 20.2665 15.549L17.2545 13.119C17.1496 13.0344 17.0287 12.9719 16.8991 12.9353C16.7694 12.8986 16.6337 12.8885 16.5 12.9056C16.3664 12.9227 16.2375 12.9666 16.1213 13.0347C16.005 13.1028 15.9037 13.1938 15.8235 13.302L14.8915 14.559C12.4991 13.3774 10.5626 11.4406 9.38151 9.04801L10.6375 8.11601C10.7458 8.03577 10.8367 7.93448 10.9048 7.81823C10.9729 7.70198 11.0168 7.57316 11.0339 7.4395C11.051 7.30585 11.0409 7.17012 11.0043 7.04046C10.9676 6.91081 10.9051 6.7899 10.8205 6.68501L8.39051 3.67301C8.2336 3.47846 8.00954 3.34972 7.76245 3.31215C7.51535 3.27458 7.26315 3.33089 7.05551 3.47001L5.72251 4.36401C5.03391 4.82579 4.5316 5.51702 4.30506 6.31457C4.07852 7.11213 4.14247 7.9642 4.48551 8.71901L5.00451 9.86001Z" fill="black"/>
</svg>
