<svg width="190" height="54" viewBox="0 0 190 54" fill="none" xmlns="http://www.w3.org/2000/svg">
<path fill-rule="evenodd" clip-rule="evenodd" d="M102.579 13.5864L102.478 14.8106C102.074 15.0739 101.639 15.2867 101.183 15.4443C100.711 15.6007 100.226 15.7179 99.7342 15.7948C99.2147 15.8737 98.69 15.9138 98.1644 15.9148C97.1771 15.9309 96.195 15.7682 95.2663 15.4347C94.4541 15.1358 93.7184 14.662 93.1121 14.0473C92.5114 13.4117 92.0551 12.6553 91.7741 11.8293C91.4427 10.9051 91.2791 9.92982 91.2911 8.94879C91.2598 7.66022 91.5946 6.38898 92.2571 5.28094C92.8932 4.25577 93.8142 3.43544 94.9089 2.91892C96.0788 2.37069 97.359 2.09485 98.6523 2.11238C99.1369 2.11339 99.6209 2.14547 100.101 2.20839C100.592 2.27007 101.076 2.37122 101.55 2.51085C102.001 2.6427 102.443 2.80305 102.874 2.99093C102.692 3.47339 102.556 3.97164 102.468 4.4792L102.333 4.508C102.123 4.25793 101.881 4.03674 101.613 3.85028C101.213 3.56719 100.78 3.33343 100.324 3.15416C99.7645 2.94932 99.1703 2.85633 98.575 2.88051C97.5357 2.84133 96.5098 3.12309 95.6382 3.68706C94.8241 4.25527 94.1905 5.04324 93.8124 5.95786C93.4079 6.9383 93.2075 7.99004 93.2231 9.04961C93.1996 10.1538 93.424 11.2494 93.88 12.2566C94.2749 13.1318 94.9135 13.8764 95.7203 14.4026C96.5307 14.9107 97.472 15.1742 98.4301 15.1611C99.0519 15.1633 99.67 15.066 100.261 14.873C100.754 14.7119 101.227 14.4961 101.671 14.2297C101.986 14.0326 102.289 13.8178 102.579 13.5864ZM107.028 3.32219V8.19506H110.578L111.158 8.13745L111.786 8.09424L111.752 8.38709V8.60313V8.80477L111.786 9.14563L111.158 9.09762L110.578 9.04961H107.028V14.7146L108.602 14.6762C109.525 14.6474 110.182 14.633 110.535 14.633C110.796 14.6349 111.057 14.6221 111.317 14.5946C111.573 14.5658 111.911 14.5226 112.336 14.4602L112.307 14.6666L112.278 14.8682V15.0459C112.271 15.1402 112.271 15.2348 112.278 15.3291L112.327 15.6268H105.299V2.40043H112.225L112.186 2.75089V2.98613V3.22137L112.225 3.56223C111.877 3.49022 111.616 3.44221 111.438 3.42301C111.118 3.37431 110.795 3.35024 110.472 3.351L108.54 3.31259L107.028 3.32219ZM113.307 15.6268H115.065V2.40043H118.987C119.8 2.38178 120.612 2.46893 121.402 2.65967C121.962 2.78469 122.469 3.08005 122.851 3.50462C123.194 3.95652 123.365 4.51423 123.334 5.0793C123.341 5.49204 123.264 5.90184 123.107 6.28432C122.956 6.65547 122.736 6.99562 122.46 7.2877C122.179 7.58387 121.853 7.83489 121.494 8.03183C121.101 8.23268 120.688 8.39352 120.262 8.51191C120.459 8.51148 120.654 8.52916 120.847 8.56472C121.069 8.60369 121.288 8.65498 121.504 8.71835C121.929 8.82242 122.33 9.00481 122.687 9.25605C123.037 9.48979 123.327 9.80231 123.533 10.1682C123.768 10.5956 123.885 11.078 123.871 11.5653C123.884 12.215 123.73 12.8574 123.423 13.4313C123.116 14.0052 122.667 14.4916 122.117 14.8442C121.744 15.084 121.332 15.2593 120.9 15.3627C120.458 15.4669 120.01 15.5391 119.557 15.5788L117.973 15.622L113.307 15.6268ZM116.785 3.14456V8.23346H117.475C117.971 8.23855 118.466 8.2145 118.958 8.16145C119.363 8.11243 119.758 8.00572 120.132 7.84459C120.591 7.65664 120.978 7.32889 121.238 6.90843C121.503 6.48504 121.64 5.99535 121.634 5.49698C121.661 4.99745 121.526 4.50254 121.248 4.08553C120.973 3.72827 120.585 3.47302 120.147 3.3606C119.558 3.20169 118.95 3.12415 118.34 3.13016L116.785 3.14456ZM116.785 9.0016V14.9066H118.717C119.306 14.9177 119.889 14.7876 120.417 14.5274C120.915 14.2889 121.333 13.912 121.62 13.4424C121.901 12.9737 122.046 12.4372 122.04 11.8917C122.077 11.2737 121.907 10.661 121.557 10.149C121.201 9.70455 120.71 9.38764 120.156 9.24644C119.455 9.05544 118.729 8.96491 118.002 8.9776L116.785 9.0016ZM128.334 3.33659V8.19506H131.889L132.468 8.13745L133.096 8.09424L133.058 8.38709V8.60313V8.80477L133.096 9.14563L132.468 9.09762L131.889 9.04961H128.334V14.7146L129.908 14.6762C130.836 14.6474 131.488 14.633 131.869 14.633C132.129 14.6349 132.389 14.6221 132.647 14.5946C132.903 14.5658 133.241 14.5226 133.666 14.4602L133.637 14.6666L133.613 14.8682V15.0459C133.604 15.1401 133.604 15.2349 133.613 15.3291L133.657 15.6268H126.643V2.40043H133.57L133.531 2.75089V2.98613V3.22137L133.57 3.56223C133.222 3.49022 132.956 3.44221 132.778 3.42301C132.458 3.3742 132.135 3.35012 131.811 3.351L129.879 3.31259L128.334 3.33659ZM138.144 9.60171V15.6844L137.791 15.6556C137.713 15.6631 137.633 15.6631 137.555 15.6556H137.284H136.893L136.41 15.694V2.40043H139.907C140.908 2.37131 141.909 2.47463 142.882 2.70768C143.512 2.84229 144.072 3.19653 144.462 3.70626C144.81 4.26921 144.978 4.92358 144.945 5.58339C144.968 6.25285 144.81 6.91618 144.486 7.50373C144.153 8.03858 143.678 8.47208 143.114 8.75676C142.374 9.12573 141.583 9.38454 140.767 9.52489C140.641 9.5489 140.472 9.5729 140.284 9.5921C140.095 9.61131 139.863 9.61611 139.641 9.61611H139.472C139.421 9.61994 139.369 9.61994 139.318 9.61611H138.835C138.794 9.5949 138.75 9.58185 138.704 9.5777H138.144V9.60171ZM138.144 3.15896V8.83357L139.042 8.87198H139.467C139.699 8.87198 139.897 8.87198 140.071 8.87198C140.655 8.82847 141.221 8.65451 141.728 8.36309C142.175 8.10227 142.542 7.72558 142.79 7.27329C143.044 6.7977 143.172 6.26573 143.162 5.72742C143.165 5.31253 143.085 4.90126 142.926 4.5176C142.777 4.15711 142.525 3.84815 142.201 3.62945C141.825 3.39217 141.395 3.25191 140.95 3.22137H140.375C140.042 3.22137 139.738 3.22137 139.453 3.22137H138.144V3.15896ZM157.571 7.98862V2.40043L158.054 2.43883H158.416H158.759L159.281 2.40043V15.6844L158.928 15.6556C158.853 15.6633 158.777 15.6633 158.701 15.6556H158.426H158.126H157.88L157.566 15.6844V9.0064L156.194 8.96799L154.6 8.89118H152.32C152.132 8.89118 151.837 8.89118 151.465 8.92959C151.094 8.96799 150.833 8.96799 150.722 8.96799L149.345 9.0064V15.6844L148.997 15.6556C148.917 15.6633 148.836 15.6633 148.756 15.6556H148.485H148.094L147.611 15.694V2.40043L148.094 2.43883H148.456H148.799L149.345 2.40043V7.98382L153.465 8.07984C154.05 8.05103 154.735 8.02703 155.528 8.00782C156.32 7.98862 157.001 7.97902 157.566 7.97902L157.571 7.98862ZM164.536 9.15523V14.8298H166.468C167.04 14.7783 167.593 14.6048 168.091 14.3209C168.539 14.0604 168.908 13.6838 169.158 13.2312C169.411 12.7552 169.537 12.2232 169.526 11.6853C169.554 11.0647 169.361 10.454 168.98 9.96177C168.771 9.72457 168.515 9.53297 168.229 9.39909C167.942 9.26522 167.63 9.19199 167.313 9.18403C167.172 9.18403 167.022 9.17443 166.864 9.15523C166.705 9.15523 166.463 9.15523 166.13 9.15523H164.512H164.536ZM164.536 2.43403V8.40629H166.313C167.313 8.37743 168.312 8.48076 169.284 8.71355C169.916 8.84629 170.478 9.2008 170.868 9.71213C171.216 10.2751 171.385 10.9294 171.351 11.5893C171.384 12.0769 171.313 12.566 171.142 13.0244C170.972 13.4827 170.706 13.9001 170.361 14.2489C169.698 14.889 168.637 15.3227 167.178 15.55C167.004 15.55 166.695 15.598 166.212 15.6172C165.729 15.6364 165.198 15.646 164.55 15.646H162.807V2.40043L163.29 2.43883H163.647H163.99L164.531 2.40043L164.536 2.43403ZM173.124 15.7084V2.40043C173.409 2.44019 173.696 2.45944 173.984 2.45804C174.275 2.46432 174.566 2.44504 174.853 2.40043V15.6844L174.496 15.646H173.448L173.134 15.6844L173.124 15.7084ZM178.35 15.7084V2.40043C178.634 2.44587 178.922 2.46515 179.21 2.45804C179.496 2.46486 179.782 2.44557 180.065 2.40043V12.5302H180.268L189.146 2.40043H190.001V15.6844C189.715 15.6498 189.428 15.6306 189.141 15.6268C188.948 15.6268 188.658 15.6268 188.281 15.6844V5.0889H188.083L185.141 8.50231L181.055 13.2312L178.94 15.6844L178.35 15.7084ZM187.822 0L188.305 0.78734C187.701 1.14708 187.051 1.42632 186.373 1.61789C185.683 1.80998 184.969 1.9069 184.253 1.90594C182.837 1.90536 181.447 1.52558 180.229 0.806543L180.712 0C181.764 0.659665 182.99 0.993853 184.233 0.960171C185.493 0.992325 186.736 0.658654 187.808 0L187.822 0ZM94.0443 30.5718V36.4481H95.9763C96.5722 36.4591 97.1604 36.3133 97.6814 36.0256C98.1636 35.7578 98.5615 35.3622 98.831 34.883C99.1025 34.3972 99.2423 33.8496 99.2367 33.2939C99.2509 32.6355 99.0282 31.9937 98.6088 31.484C98.3937 31.2256 98.1276 31.0138 97.8268 30.8619C97.526 30.7099 97.197 30.621 96.8603 30.6006C96.4655 30.5607 96.0687 30.5447 95.672 30.5526H94.8364H94.0443V30.5718ZM92.3296 37.2258V24.0043H100.237C100.197 24.1953 100.179 24.3902 100.183 24.5852C100.183 24.7787 100.202 24.9718 100.241 25.1613C99.9033 25.0989 99.5748 25.0461 99.2754 25.0124C99.0127 24.9774 98.7482 24.9581 98.4832 24.9548L96.1213 24.926H94.0443V29.8133H95.8411C97.7023 29.8133 99.0403 30.0805 99.855 30.615C100.266 30.9035 100.594 31.2934 100.808 31.7462C101.021 32.1991 101.112 32.6994 101.072 33.1979C101.084 33.9087 100.901 34.6093 100.541 35.2239C100.169 35.8384 99.6323 36.3373 98.9904 36.6641C98.6401 36.8461 98.2708 36.9893 97.8891 37.0914C97.5015 37.1941 97.102 37.2458 96.7009 37.245L92.3296 37.2258ZM105.579 24.926V29.7941H109.134L109.713 29.7413L110.341 29.6933L110.303 29.9861V30.207V30.4038L110.341 30.7447L109.713 30.6967L109.134 30.6486H105.579V36.3137L107.153 36.2752C108.076 36.2464 108.733 36.2368 109.114 36.2368C109.374 36.2372 109.634 36.2228 109.892 36.1936C110.148 36.1936 110.486 36.1216 110.911 36.0592L110.882 36.2656L110.858 36.4673V36.6449C110.849 36.7407 110.849 36.8372 110.858 36.933L110.902 37.2258H103.85V24.0043H110.776L110.733 24.3547V24.5852V24.8204L110.776 25.1613C110.423 25.0941 110.163 25.0461 109.984 25.022C109.664 24.975 109.341 24.9525 109.018 24.9548L107.086 24.9164L105.579 24.926ZM115.36 31.1671V37.2834L115.007 37.2546C114.929 37.2649 114.849 37.2649 114.771 37.2546H114.495H114.109L113.626 37.293V24.0043H117.123C118.124 23.9764 119.124 24.078 120.098 24.3067C120.727 24.4425 121.287 24.7965 121.678 25.3053C122.026 25.8697 122.195 26.5258 122.161 27.1872C122.177 27.8589 122.01 28.5225 121.678 29.1076C121.345 29.6424 120.87 30.0759 120.306 30.3606C119.566 30.7296 118.775 30.9884 117.959 31.1287C117.828 31.1287 117.664 31.1767 117.475 31.1959C117.287 31.2152 117.06 31.1959 116.838 31.1959H116.669C116.617 31.1998 116.566 31.1998 116.514 31.1959H116.031C115.996 31.195 115.96 31.1982 115.925 31.2055H115.374L115.36 31.1671ZM115.36 24.7244V30.4326L116.258 30.471H116.683C116.915 30.471 117.113 30.471 117.287 30.471C117.867 30.4348 118.431 30.2708 118.939 29.9909C119.387 29.7293 119.755 29.3529 120.006 28.9011C120.258 28.4232 120.385 27.8898 120.374 27.3505C120.377 26.9359 120.299 26.5248 120.142 26.1406C119.996 25.7801 119.743 25.4721 119.417 25.2573C119.04 25.0179 118.608 24.8775 118.161 24.8492H117.591C117.258 24.8492 116.954 24.8492 116.669 24.8492H115.36V24.7244ZM126.547 24.902V29.7941H130.102L130.681 29.7413L131.309 29.6933L131.27 29.9861V30.207V30.4038L131.309 30.7447L130.681 30.6967L130.102 30.6486H126.551V36.3137L128.126 36.2752C129.049 36.2464 129.706 36.2368 130.087 36.2368C130.347 36.2372 130.607 36.2228 130.865 36.1936C131.121 36.1936 131.459 36.1216 131.884 36.0592L131.855 36.2656L131.831 36.4673V36.6449C131.822 36.7407 131.822 36.8372 131.831 36.933L131.874 37.2258H124.832V24.0043H131.758L131.715 24.3547V24.5852V24.8204L131.758 25.1613C131.406 25.0941 131.145 25.0461 130.966 25.022C130.646 24.975 130.323 24.9525 130 24.9548L128.068 24.9164L126.547 24.902ZM134.608 37.2402V24.0043H141.525L141.486 24.3547V24.5852V24.8204L141.525 25.1613C141.172 25.0941 140.912 25.0461 140.738 25.022C140.418 24.9754 140.095 24.9529 139.772 24.9548L137.84 24.9164H136.342V37.2546L135.478 37.2162H135.12C134.912 37.2594 134.763 37.2642 134.608 37.2642V37.2402Z" fill="#1A1A18"/>
<path fill-rule="evenodd" clip-rule="evenodd" d="M28.7927 20.4612V24.5131C28.7927 29.674 28.8603 34.5613 29.0004 37.4226H26.4742C22.2623 32.1177 12.5585 20.8837 4.49207 12.0885C4.1443 11.7381 3.86414 11.2484 3.43909 10.7635L3.29901 10.8307V19.4722C3.29901 25.5453 3.57916 33.2891 4.21192 37.341C3.51158 37.2821 2.80871 37.2581 2.10596 37.269C1.54566 37.269 0.700376 37.341 0 37.341C0.420226 33.2891 0.632754 25.5453 0.632754 19.4722V16.9758C0.632754 10.5618 0.483018 4.75761 0.420226 2.40039H3.15894C9.17734 9.7841 19.2386 20.9509 25.1411 27.3024C25.4212 27.5809 25.7014 27.9313 26.1071 28.421L26.1796 28.349V20.4612C26.1796 14.3929 25.8994 6.64435 25.2667 2.59723C26.1071 2.66444 26.8075 2.66444 27.4403 2.66444C28.073 2.66444 28.8458 2.59723 29.4061 2.59723C29.0729 6.64435 28.7927 14.4025 28.7927 20.4612Z" fill="#1A1A18"/>
<path fill-rule="evenodd" clip-rule="evenodd" d="M82.8626 2.59717C82.3796 2.66438 81.2445 2.66438 80.7519 2.66438C80.2592 2.66438 79.3511 2.59717 78.786 2.59717C77.0326 10.0817 72.5357 24.5131 70.2221 31.143H70.082C67.976 25.5597 64.392 14.5321 61.7934 5.94816L59.0547 13.9224C61.4456 21.042 64.4645 30.7254 66.3579 37.3025C67.0823 37.2414 67.8094 37.2173 68.5363 37.2305C69.1691 37.2305 70.1496 37.3025 70.7147 37.3025C73.7336 28.0897 80.0515 10.2209 82.9303 2.68358L82.8626 2.59717Z" fill="#D7B46A"/>
<path fill-rule="evenodd" clip-rule="evenodd" d="M59.8265 2.66438H58.928C58.2953 2.66438 57.5225 2.59717 56.7545 2.59717C54.576 10.2785 49.9391 24.4411 47.5771 31.143H47.5095C44.8722 23.3945 41.2206 10.3409 39.3223 2.59717C38.3563 2.66438 37.3564 2.66438 36.5836 2.66438C35.8108 2.66438 34.6177 2.66438 33.2846 2.59717L33.1445 2.66438C35.9509 10.5618 41.2882 28.1425 43.7468 37.2833C44.471 37.2197 45.1983 37.1956 45.9252 37.2113C46.698 37.2113 47.6109 37.2833 48.0988 37.2833C50.2096 30.9318 52.8034 23.2552 55.1219 16.6397L59.8265 2.66438Z" fill="#1A1A18"/>
<path d="M3.26895 44.535C3.74764 44.535 4.19484 44.6074 4.61054 44.7523C5.03255 44.8971 5.39786 45.1113 5.70649 45.3947C6.02142 45.6719 6.26706 46.0183 6.44342 46.434C6.62608 46.8434 6.71741 47.3158 6.71741 47.8512C6.71741 48.0968 6.68907 48.3551 6.63238 48.6259C6.57569 48.8967 6.48436 49.1613 6.35839 49.4195C6.23872 49.6778 6.08441 49.9265 5.89545 50.1659C5.70649 50.4052 5.48289 50.6131 5.22465 50.7894C4.96641 50.9658 4.67038 51.1075 4.33656 51.2146C4.00273 51.3217 3.62797 51.3752 3.21226 51.3752C2.92883 51.3752 2.64539 51.35 2.36196 51.2996C2.08482 51.2492 1.81713 51.1705 1.55889 51.0634C1.30695 50.9564 1.07075 50.8209 0.850305 50.6572C0.629856 50.4934 0.440899 50.2982 0.283435 50.0714L0.765275 49.6085C0.884947 49.7974 1.02352 49.9738 1.18098 50.1375C1.34474 50.3013 1.52425 50.4462 1.71951 50.5721C1.92106 50.6918 2.13836 50.7863 2.37141 50.8556C2.61075 50.9249 2.86899 50.9595 3.14613 50.9595C3.56183 50.9595 3.9303 50.8776 4.25153 50.7139C4.57905 50.5501 4.85304 50.3328 5.07349 50.062C5.30023 49.7848 5.47345 49.4699 5.59312 49.1172C5.71279 48.7582 5.77263 48.3897 5.77263 48.0118V47.9645H2.6265V47.5394H5.77263V47.5016C5.77263 47.1993 5.71909 46.8969 5.61201 46.5946C5.50494 46.2923 5.34118 46.0183 5.12073 45.7726C4.90658 45.527 4.63889 45.3286 4.31766 45.1774C3.99643 45.0263 3.61852 44.9507 3.18392 44.9507C2.90678 44.9507 2.64539 44.9853 2.39975 45.0546C2.1604 45.1239 1.93996 45.2215 1.7384 45.3475C1.53685 45.4672 1.35419 45.6089 1.19043 45.7726C1.02666 45.9364 0.884947 46.1128 0.765275 46.3017L0.283435 45.8388C0.604661 45.3853 1.02666 45.0546 1.54944 44.8468C2.07852 44.6389 2.65169 44.535 3.26895 44.535ZM8.4226 51.2618V44.6484H9.28235V48.3708L12.8253 44.6484H13.2977L10.8979 47.2087L13.8457 51.2618H12.8631L10.35 47.7945L9.28235 48.9377V51.2618H8.4226ZM20.9375 50.0431L21.2209 50.2982C21.1391 50.3926 21.0194 50.5029 20.8619 50.6288C20.7045 50.7548 20.5061 50.8745 20.2667 50.9879C20.0337 51.0949 19.7565 51.1863 19.4353 51.2618C19.1204 51.3374 18.7614 51.3752 18.3582 51.3752C17.7221 51.3752 17.1741 51.2776 16.7143 51.0823C16.2545 50.8808 15.8766 50.6194 15.5806 50.2982C15.2846 49.9706 15.0641 49.599 14.9192 49.1833C14.7807 48.7613 14.7114 48.3299 14.7114 47.889C14.7114 47.3788 14.7996 46.919 14.9759 46.5096C15.1523 46.0939 15.4011 45.7412 15.7223 45.4514C16.0435 45.1554 16.4277 44.9286 16.8749 44.7712C17.3284 44.6137 17.8292 44.535 18.3771 44.535C18.7551 44.535 19.092 44.5728 19.3881 44.6484C19.6841 44.7239 19.9423 44.8279 20.1628 44.9601C20.3832 45.0924 20.5659 45.2499 20.7108 45.4325C20.8619 45.6152 20.9847 45.8136 21.0792 46.0277H20.3801C20.336 45.8955 20.2573 45.7664 20.1439 45.6404C20.0368 45.5081 19.8951 45.3916 19.7187 45.2908C19.5487 45.19 19.3503 45.1082 19.1235 45.0452C18.9031 44.9822 18.6574 44.9507 18.3866 44.9507C17.9898 44.9507 17.6213 45.0231 17.2812 45.168C16.9474 45.3129 16.6576 45.5144 16.412 45.7726C16.1664 46.0309 15.9742 46.3395 15.8357 46.6985C15.7034 47.0513 15.6373 47.4418 15.6373 47.8701C15.6373 48.2732 15.7003 48.6605 15.8262 49.0322C15.9585 49.4038 16.1506 49.7313 16.4025 50.0147C16.6545 50.2982 16.9694 50.5249 17.3473 50.695C17.7252 50.865 18.1598 50.9501 18.6511 50.9501C19.5329 50.9501 20.2951 50.6477 20.9375 50.0431ZM28.3186 44.6484V51.2618H27.4589V45.168H23.5002V51.2618H22.6405V44.6484H28.3186ZM33.7589 44.6484L36.631 51.2618H35.6957L33.3054 45.7065H33.2676L31.4253 50.3832C31.2993 50.7044 31.1544 50.9501 30.9907 51.1201C30.8332 51.2902 30.6537 51.3752 30.4521 51.3752C30.3262 51.3752 30.2002 51.3658 30.0742 51.3469C29.9546 51.328 29.8412 51.2996 29.7341 51.2618L29.9892 50.6194C30.0522 50.6509 30.1215 50.6887 30.197 50.7328C30.2726 50.7769 30.3514 50.7989 30.4332 50.7989C30.6411 50.7989 30.7923 50.7139 30.8867 50.5438C30.9875 50.3737 31.0914 50.147 31.1985 49.8636L33.2393 44.6484H33.7589ZM38.2092 44.6484L40.5711 48.4842H40.6089L42.3757 44.6484H42.867L40.1554 50.5249C40.0673 50.7076 39.9759 50.8556 39.8814 50.969C39.787 51.076 39.6893 51.1611 39.5886 51.224C39.4941 51.287 39.3933 51.328 39.2862 51.3469C39.1855 51.3658 39.0878 51.3752 38.9934 51.3752C38.7792 51.3752 38.5839 51.3406 38.4076 51.2713C38.2375 51.2083 38.1084 51.139 38.0202 51.0634L38.417 50.1848C38.4989 50.2919 38.6028 50.3926 38.7288 50.4871C38.8548 50.5816 38.9934 50.6288 39.1445 50.6288C39.3461 50.6288 39.4909 50.5816 39.5791 50.4871C39.6736 50.3926 39.7523 50.2824 39.8153 50.1564L40.1554 49.4384L37.1983 44.6484H38.2092ZM47.9608 49.3156H44.7013L43.8699 51.2618H43.4353L46.2319 44.6484H46.7043L49.7843 51.2618H48.8678L47.9608 49.3156ZM47.7624 48.8904L46.2791 45.7065H46.2413L44.8808 48.8904H47.7624ZM53.6524 51.2618H52.7927V45.168H50.2606V44.6484H56.1844V45.168H53.6524V51.2618ZM61.1823 49.3156H57.9228L57.0913 51.2618H56.6567L59.4533 44.6484H59.9257L63.0057 51.2618H62.0892L61.1823 49.3156ZM60.9838 48.8904L59.5005 45.7065H59.4627L58.1023 48.8904H60.9838ZM70.0767 50.7422H70.8797V52.2539H70.0767V51.2618H64.4268V44.6484H65.2866V50.7422H69.2169V44.6484H70.0767V50.7422ZM73.4427 50.4871L77.3636 44.6484H78.2233V51.2618H77.3636V45.3569L73.4427 51.2618H72.583V44.6484H73.4427V50.4871ZM85.0061 44.6484V51.2618H84.1463V48.3425H83.7306C83.5543 48.3425 83.4062 48.3582 83.2866 48.3897C83.1732 48.4212 83.0693 48.4747 82.9748 48.5503C82.8803 48.6259 82.7921 48.7235 82.7103 48.8432C82.6284 48.9629 82.5307 49.1109 82.4174 49.2872L81.671 50.3926C81.5765 50.5375 81.482 50.6698 81.3876 50.7894C81.2994 50.9091 81.2017 51.013 81.0947 51.1012C80.9876 51.1831 80.8648 51.2492 80.7262 51.2996C80.5939 51.35 80.4333 51.3752 80.2444 51.3752C80.1058 51.3752 79.9924 51.3689 79.9042 51.3563C79.8161 51.3437 79.7279 51.3122 79.6397 51.2618V50.9123C79.6712 50.9186 79.7027 50.9249 79.7342 50.9312C79.7657 50.9312 79.7972 50.9312 79.8287 50.9312C79.9609 50.9312 80.0775 50.9123 80.1782 50.8745C80.279 50.8367 80.3735 50.7832 80.4617 50.7139C80.5498 50.6383 80.6349 50.5501 80.7168 50.4493C80.7986 50.3423 80.8837 50.2226 80.9718 50.0903C81.2364 49.7061 81.4411 49.4006 81.586 49.1739C81.7308 48.9408 81.8442 48.7613 81.9261 48.6353C82.0143 48.5094 82.0835 48.418 82.1339 48.3614C82.1906 48.3047 82.2568 48.2574 82.3323 48.2196L82.4268 48.1724V48.1346C82.1245 48.1157 81.8631 48.0496 81.6426 47.9362C81.4285 47.8228 81.2521 47.6811 81.1136 47.5111C80.975 47.341 80.8742 47.1583 80.8112 46.9631C80.7483 46.7615 80.7168 46.5663 80.7168 46.3773C80.7168 46.2072 80.7483 46.0214 80.8112 45.8199C80.8805 45.6183 80.9939 45.4325 81.1514 45.2625C81.3151 45.0861 81.5356 44.9412 81.8127 44.8279C82.0898 44.7082 82.4394 44.6484 82.8614 44.6484H85.0061ZM84.1463 45.0641H83.1921C82.9527 45.0641 82.7354 45.0987 82.5402 45.168C82.3512 45.2373 82.1875 45.3349 82.0489 45.4609C81.9103 45.5805 81.8033 45.7254 81.7277 45.8955C81.6584 46.0655 81.6238 46.2513 81.6238 46.4529C81.6238 46.623 81.6552 46.7962 81.7182 46.9725C81.7875 47.1426 81.8883 47.3 82.0206 47.4449C82.1528 47.5835 82.3134 47.6969 82.5024 47.785C82.6977 47.8732 82.9213 47.9173 83.1732 47.9173H84.1463V45.0641ZM91.4342 50.4871L95.3551 44.6484H96.2148V51.2618H95.3551V45.3569L91.4342 51.2618H90.5745V44.6484H91.4342V50.4871ZM101.123 47.9551C101.123 47.5961 101.189 47.215 101.322 46.8119C101.46 46.4088 101.674 46.0403 101.964 45.7065C102.254 45.3664 102.622 45.0861 103.069 44.8657C103.517 44.6452 104.052 44.535 104.676 44.535C105.305 44.535 105.85 44.6484 106.31 44.8751C106.776 45.0956 107.16 45.3758 107.463 45.716C107.765 46.0561 107.989 46.4277 108.133 46.8308C108.278 47.2276 108.351 47.6024 108.351 47.9551C108.351 48.1881 108.316 48.4338 108.247 48.692C108.184 48.9503 108.086 49.2085 107.954 49.4668C107.828 49.7187 107.664 49.9612 107.463 50.1942C107.261 50.421 107.022 50.6225 106.745 50.7989C106.474 50.9753 106.165 51.117 105.819 51.224C105.479 51.3248 105.098 51.3752 104.676 51.3752C104.052 51.3752 103.517 51.265 103.069 51.0445C102.622 50.8178 102.254 50.5344 101.964 50.1942C101.674 49.8541 101.46 49.4856 101.322 49.0888C101.189 48.6857 101.123 48.3078 101.123 47.9551ZM102.049 47.9551C102.049 48.396 102.115 48.8023 102.247 49.1739C102.386 49.5392 102.572 49.8541 102.805 50.1187C103.044 50.3832 103.325 50.591 103.646 50.7422C103.967 50.8871 104.317 50.9595 104.694 50.9595C105.066 50.9595 105.416 50.8871 105.743 50.7422C106.077 50.591 106.367 50.3832 106.612 50.1187C106.864 49.8541 107.063 49.5392 107.208 49.1739C107.352 48.8023 107.425 48.396 107.425 47.9551C107.425 47.5142 107.352 47.1111 107.208 46.7458C107.063 46.3742 106.864 46.0561 106.612 45.7915C106.367 45.527 106.077 45.3223 105.743 45.1774C105.416 45.0263 105.066 44.9507 104.694 44.9507C104.317 44.9507 103.967 45.0263 103.646 45.1774C103.325 45.3223 103.044 45.527 102.805 45.7915C102.572 46.0561 102.386 46.3742 102.247 46.7458C102.115 47.1111 102.049 47.5142 102.049 47.9551ZM110.819 45.168V47.5394H112.132C112.623 47.5394 113.027 47.5961 113.341 47.7095C113.663 47.8165 113.915 47.9582 114.097 48.1346C114.286 48.311 114.415 48.5094 114.485 48.7298C114.56 48.9503 114.598 49.1707 114.598 49.3912C114.598 49.6116 114.56 49.8321 114.485 50.0525C114.415 50.273 114.289 50.4745 114.107 50.6572C113.924 50.8335 113.672 50.9784 113.351 51.0918C113.036 51.2052 112.63 51.2618 112.132 51.2618H109.959V44.6484H113.993V45.168H110.819ZM110.819 50.865H112.123C112.318 50.865 112.507 50.8335 112.69 50.7706C112.879 50.7076 113.042 50.6194 113.181 50.506C113.326 50.3863 113.442 50.2383 113.53 50.062C113.619 49.8856 113.663 49.6841 113.663 49.4573C113.663 49.2432 113.625 49.0447 113.549 48.8621C113.474 48.6731 113.367 48.5125 113.228 48.3803C113.096 48.248 112.929 48.1441 112.727 48.0685C112.532 47.9929 112.312 47.9551 112.066 47.9551H110.819V50.865ZM121.976 50.0431L122.259 50.2982C122.177 50.3926 122.058 50.5029 121.9 50.6288C121.743 50.7548 121.544 50.8745 121.305 50.9879C121.072 51.0949 120.795 51.1863 120.474 51.2618C120.159 51.3374 119.8 51.3752 119.397 51.3752C118.76 51.3752 118.212 51.2776 117.753 51.0823C117.293 50.8808 116.915 50.6194 116.619 50.2982C116.323 49.9706 116.102 49.599 115.958 49.1833C115.819 48.7613 115.75 48.3299 115.75 47.889C115.75 47.3788 115.838 46.919 116.014 46.5096C116.191 46.0939 116.439 45.7412 116.761 45.4514C117.082 45.1554 117.466 44.9286 117.913 44.7712C118.367 44.6137 118.867 44.535 119.415 44.535C119.793 44.535 120.13 44.5728 120.426 44.6484C120.722 44.7239 120.981 44.8279 121.201 44.9601C121.422 45.0924 121.604 45.2499 121.749 45.4325C121.9 45.6152 122.023 45.8136 122.118 46.0277H121.418C121.374 45.8955 121.296 45.7664 121.182 45.6404C121.075 45.5081 120.933 45.3916 120.757 45.2908C120.587 45.19 120.389 45.1082 120.162 45.0452C119.941 44.9822 119.696 44.9507 119.425 44.9507C119.028 44.9507 118.66 45.0231 118.32 45.168C117.986 45.3129 117.696 45.5144 117.45 45.7726C117.205 46.0309 117.013 46.3395 116.874 46.6985C116.742 47.0513 116.676 47.4418 116.676 47.8701C116.676 48.2732 116.739 48.6605 116.865 49.0322C116.997 49.4038 117.189 49.7313 117.441 50.0147C117.693 50.2982 118.008 50.5249 118.386 50.695C118.764 50.865 119.198 50.9501 119.689 50.9501C120.571 50.9501 121.333 50.6477 121.976 50.0431ZM126.853 44.6484L129.725 51.2618H128.79L126.4 45.7065H126.362L124.52 50.3832C124.394 50.7044 124.249 50.9501 124.085 51.1201C123.928 51.2902 123.748 51.3752 123.547 51.3752C123.421 51.3752 123.295 51.3658 123.169 51.3469C123.049 51.328 122.936 51.2996 122.828 51.2618L123.084 50.6194C123.147 50.6509 123.216 50.6887 123.291 50.7328C123.367 50.7769 123.446 50.7989 123.528 50.7989C123.735 50.7989 123.887 50.7139 123.981 50.5438C124.082 50.3737 124.186 50.147 124.293 49.8636L126.334 44.6484H126.853ZM131.304 44.6484L133.666 48.4842H133.703L135.47 44.6484H135.961L133.25 50.5249C133.162 50.7076 133.07 50.8556 132.976 50.969C132.881 51.076 132.784 51.1611 132.683 51.224C132.588 51.287 132.488 51.328 132.381 51.3469C132.28 51.3658 132.182 51.3752 132.088 51.3752C131.874 51.3752 131.678 51.3406 131.502 51.2713C131.332 51.2083 131.203 51.139 131.115 51.0634L131.511 50.1848C131.593 50.2919 131.697 50.3926 131.823 50.4871C131.949 50.5816 132.088 50.6288 132.239 50.6288C132.44 50.6288 132.585 50.5816 132.674 50.4871C132.768 50.3926 132.847 50.2824 132.91 50.1564L133.25 49.4384L130.293 44.6484H131.304ZM147.017 50.8934L147.281 50.8745V51.2524C147.029 51.3343 146.765 51.3752 146.488 51.3752C146.393 51.3752 146.302 51.3689 146.214 51.3563C146.126 51.35 146.037 51.328 145.949 51.2902C145.867 51.2587 145.782 51.2115 145.694 51.1485C145.606 51.0792 145.521 50.991 145.439 50.8839L143.408 47.7472L142.312 48.8715V51.2618H141.499V48.8715L140.403 47.7472L138.372 50.8839C138.284 50.991 138.196 51.0792 138.107 51.1485C138.026 51.2115 137.941 51.2587 137.852 51.2902C137.771 51.328 137.685 51.35 137.597 51.3563C137.509 51.3689 137.418 51.3752 137.323 51.3752C137.046 51.3752 136.782 51.3343 136.53 51.2524V50.8745L136.794 50.8934C136.914 50.8934 137.021 50.8839 137.115 50.865C137.216 50.8398 137.311 50.7989 137.399 50.7422C137.487 50.6855 137.572 50.6099 137.654 50.5155C137.742 50.421 137.833 50.3013 137.928 50.1564L139.865 47.1898L137.418 44.6484H138.032L141.499 48.2385V44.6484H142.312V48.2385L145.779 44.6484H146.393L143.946 47.1898L145.883 50.1564C146.066 50.4462 146.239 50.6414 146.403 50.7422C146.566 50.843 146.771 50.8934 147.017 50.8934ZM149.561 50.4871L153.481 44.6484H154.341V51.2618H153.481V45.3569L149.561 51.2618H148.701V44.6484H149.561V50.4871ZM156.608 51.2618V44.6484H158.97C159.297 44.6484 159.581 44.6987 159.82 44.7995C160.066 44.894 160.264 45.0168 160.415 45.168C160.573 45.3192 160.689 45.4861 160.765 45.6687C160.84 45.8514 160.878 46.0309 160.878 46.2072C160.878 46.4088 160.834 46.6009 160.746 46.7836C160.658 46.9599 160.538 47.1174 160.387 47.256C160.242 47.3882 160.072 47.4985 159.877 47.5866C159.682 47.6685 159.474 47.7095 159.253 47.7095V47.7472C159.392 47.7535 159.574 47.7756 159.801 47.8134C160.028 47.8512 160.248 47.9268 160.463 48.0401C160.677 48.1535 160.859 48.3173 161.011 48.5314C161.168 48.7456 161.247 49.0322 161.247 49.3912C161.247 49.6179 161.206 49.8447 161.124 50.0714C161.048 50.2919 160.922 50.4903 160.746 50.6666C160.57 50.843 160.337 50.9879 160.047 51.1012C159.757 51.2083 159.401 51.2618 158.979 51.2618H156.608ZM157.468 50.8461H158.838C159.039 50.8461 159.228 50.8178 159.404 50.7611C159.587 50.6981 159.744 50.6068 159.877 50.4871C160.009 50.3674 160.113 50.2226 160.189 50.0525C160.27 49.8825 160.311 49.6872 160.311 49.4668C160.311 49.2652 160.274 49.0731 160.198 48.8904C160.129 48.7078 160.018 48.5472 159.867 48.4086C159.722 48.27 159.537 48.1598 159.31 48.0779C159.083 47.996 158.815 47.9551 158.507 47.9551H157.468V50.8461ZM157.468 47.5394H158.601C158.79 47.5394 158.967 47.5079 159.13 47.4449C159.3 47.3819 159.448 47.2938 159.574 47.1804C159.707 47.067 159.807 46.9316 159.877 46.7741C159.952 46.6167 159.99 46.4466 159.99 46.2639C159.99 46.1191 159.965 45.9742 159.915 45.8293C159.864 45.6845 159.782 45.5553 159.669 45.442C159.562 45.3286 159.42 45.2373 159.244 45.168C159.074 45.0987 158.866 45.0641 158.62 45.0641H157.468V47.5394ZM166.336 49.3156H163.076L162.245 51.2618H161.81L164.607 44.6484H165.079L168.159 51.2618H167.243L166.336 49.3156ZM166.137 48.8904L164.654 45.7065H164.616L163.256 48.8904H166.137ZM170.44 47.974V51.2618H169.58V44.6484H170.44V47.5394H174.399V44.6484H175.258V51.2618H174.399V47.974H170.44ZM178.384 50.4871L182.305 44.6484H183.164V51.2618H182.305V45.3569L178.384 51.2618H177.524V44.6484H178.384V50.4871ZM185.431 44.6484H189.702V45.168H186.291V47.5394H189.22V47.9929H186.291V50.7422H189.702V51.2618H185.431V44.6484Z" fill="#020204"/>
</svg>
