<svg width="20" height="21" viewBox="0 0 20 21" fill="none" xmlns="http://www.w3.org/2000/svg">
<path d="M15.625 4.77588H2.5C2.00272 4.77588 1.52581 4.97342 1.17417 5.32505C0.822544 5.67668 0.625 6.1536 0.625 6.65088V14.1509C0.625 14.6482 0.822544 15.1251 1.17417 15.4767C1.52581 15.8283 2.00272 16.0259 2.5 16.0259H15.625C16.1223 16.0259 16.5992 15.8283 16.9508 15.4767C17.3025 15.1251 17.5 14.6482 17.5 14.1509V6.65088C17.5 6.1536 17.3025 5.67668 16.9508 5.32505C16.5992 4.97342 16.1223 4.77588 15.625 4.77588ZM16.25 14.1509C16.25 14.3166 16.1842 14.4756 16.0669 14.5928C15.9497 14.71 15.7908 14.7759 15.625 14.7759H2.5C2.33424 14.7759 2.17527 14.71 2.05806 14.5928C1.94085 14.4756 1.875 14.3166 1.875 14.1509V6.65088C1.875 6.48512 1.94085 6.32615 2.05806 6.20894C2.17527 6.09173 2.33424 6.02588 2.5 6.02588H15.625C15.7908 6.02588 15.9497 6.09173 16.0669 6.20894C16.1842 6.32615 16.25 6.48512 16.25 6.65088V14.1509ZM20 7.90088V12.9009C20 13.0666 19.9342 13.2256 19.8169 13.3428C19.6997 13.46 19.5408 13.5259 19.375 13.5259C19.2092 13.5259 19.0503 13.46 18.9331 13.3428C18.8158 13.2256 18.75 13.0666 18.75 12.9009V7.90088C18.75 7.73512 18.8158 7.57615 18.9331 7.45894C19.0503 7.34173 19.2092 7.27588 19.375 7.27588C19.5408 7.27588 19.6997 7.34173 19.8169 7.45894C19.9342 7.57615 20 7.73512 20 7.90088ZM10.8445 10.072C10.9006 10.1627 10.9326 10.2662 10.9374 10.3727C10.9422 10.4792 10.9196 10.5852 10.8719 10.6806L9.62188 13.1806C9.58515 13.254 9.53431 13.3195 9.47226 13.3733C9.41022 13.4272 9.33818 13.4682 9.26027 13.4942C9.18235 13.5202 9.10009 13.5305 9.01817 13.5247C8.93624 13.5189 8.85627 13.497 8.78281 13.4603C8.70935 13.4235 8.64385 13.3727 8.59004 13.3106C8.53623 13.2486 8.49516 13.1766 8.46919 13.0986C8.44322 13.0207 8.43285 12.9385 8.43867 12.8565C8.4445 12.7746 8.4664 12.6946 8.50312 12.6212L9.30156 11.0259H7.8125C7.70591 11.026 7.60107 10.9988 7.50795 10.9469C7.41483 10.895 7.33652 10.8202 7.28046 10.7296C7.2244 10.6389 7.19247 10.5354 7.18768 10.4289C7.1829 10.3225 7.20543 10.2165 7.25312 10.1212L8.50312 7.62119C8.53985 7.54773 8.59069 7.48223 8.65274 7.42842C8.71478 7.37461 8.78682 7.33354 8.86473 7.30757C8.94265 7.2816 9.02491 7.27123 9.10683 7.27705C9.18876 7.28287 9.26873 7.30477 9.34219 7.3415C9.41565 7.37823 9.48115 7.42907 9.53496 7.49112C9.58877 7.55316 9.62984 7.6252 9.65581 7.70311C9.68178 7.78102 9.69215 7.86329 9.68633 7.94521C9.6805 8.02713 9.6586 8.10711 9.62188 8.18057L8.82344 9.77588H10.3125C10.4191 9.77578 10.5239 9.80293 10.617 9.85476C10.7101 9.90658 10.7884 9.98135 10.8445 10.072Z" fill="black"/>
</svg>
