<svg width="24" height="24" viewBox="0 0 24 24" fill="none" xmlns="http://www.w3.org/2000/svg">
<path d="M20.25 18.75C20.25 18.9489 20.171 19.1397 20.0303 19.2803C19.8897 19.421 19.6989 19.5 19.5 19.5C19.3011 19.5 19.1103 19.421 18.9697 19.2803C18.829 19.1397 18.75 18.9489 18.75 18.75C18.75 11.3062 12.6938 5.25 5.25 5.25C5.05109 5.25 4.86032 5.17098 4.71967 5.03033C4.57902 4.88968 4.5 4.69891 4.5 4.5C4.5 4.30109 4.57902 4.11032 4.71967 3.96967C4.86032 3.82902 5.05109 3.75 5.25 3.75C13.5206 3.75 20.25 10.4794 20.25 18.75ZM5.25 10.5C5.05109 10.5 4.86032 10.579 4.71967 10.7197C4.57902 10.8603 4.5 11.0511 4.5 11.25C4.5 11.4489 4.57902 11.6397 4.71967 11.7803C4.86032 11.921 5.05109 12 5.25 12C7.0396 12.002 8.75534 12.7138 10.0208 13.9792C11.2862 15.2447 11.998 16.9604 12 18.75C12 18.9489 12.079 19.1397 12.2197 19.2803C12.3603 19.421 12.5511 19.5 12.75 19.5C12.9489 19.5 13.1397 19.421 13.2803 19.2803C13.421 19.1397 13.5 18.9489 13.5 18.75C13.4975 16.5627 12.6275 14.4657 11.0809 12.9191C9.53425 11.3725 7.43727 10.5025 5.25 10.5ZM5.625 17.25C5.4025 17.25 5.18499 17.316 4.99998 17.4396C4.81498 17.5632 4.67078 17.7389 4.58564 17.9445C4.50049 18.15 4.47821 18.3762 4.52162 18.5945C4.56503 18.8127 4.67217 19.0132 4.82951 19.1705C4.98684 19.3278 5.1873 19.435 5.40552 19.4784C5.62375 19.5218 5.84995 19.4995 6.05552 19.4144C6.26109 19.3292 6.43679 19.185 6.5604 19C6.68402 18.815 6.75 18.5975 6.75 18.375C6.75 18.0766 6.63147 17.7905 6.4205 17.5795C6.20952 17.3685 5.92337 17.25 5.625 17.25Z" fill="#344054"/>
</svg>
