<svg width="48" height="48" viewBox="0 0 48 48" fill="none" xmlns="http://www.w3.org/2000/svg">
<path d="M32.4966 40.9171L24.0015 46.4878L15.5036 40.9171C8.34109 36.2206 4.15894 28.9651 4.15894 21.2775V7.91682L24.0015 1.52539L43.8547 7.91682V21.2903C43.8547 28.9651 39.6592 36.2206 32.4966 40.9171Z" fill="#E4E1DD"/>
<path d="M37.9791 21.2764V11.9449L24.0012 7.44531L10.0339 11.9449V21.2764C10.0339 27.1411 13.2387 32.6071 18.8469 36.2758L24.0252 39.6709L29.2008 36.2758C34.7717 32.6071 37.9791 27.1411 37.9791 21.2764Z" fill="#B24F47"/>
<path d="M32.4964 40.9171C39.6589 36.2206 43.8544 28.9651 43.8544 21.2775V7.91682L24.0012 1.52539V46.4878L32.4964 40.9171Z" fill="#E4E1DD"/>
<path d="M24.0012 7.44531V39.6709L29.1768 36.2758C34.7717 32.6071 37.9898 27.1411 37.9898 21.2764V11.9449L24.0119 7.44531H24.0012Z" fill="#B24F47"/>
<path d="M23.9987 1.5127L4.14551 7.90413L10.0208 11.9461L23.9987 7.4465V1.5127Z" fill="#E4E1DD"/>
<path d="M23.9988 1.5127L43.8547 7.90413L37.9794 11.9461L23.9988 7.4465V1.5127Z" fill="#E4E1DD"/>
<path d="M24.0013 7.44531V8.42704L36.5104 12.4536V21.2738C36.5104 27.1386 33.3056 32.3489 27.6974 36.0176L23.9906 38.4489V39.6683L29.1662 36.2732C34.7611 32.6045 37.9792 27.1386 37.9792 21.2738V11.9423L24.0013 7.44531Z" fill="#AB1D1D"/>
<path d="M24.007 18.2275L24.007 24.5003M24.007 26.7949L24.007 26.7747" stroke="white" stroke-width="1.33333" stroke-linecap="round"/>
</svg>
