<svg width="25" height="24" viewBox="0 0 25 24" fill="none" xmlns="http://www.w3.org/2000/svg">
<path d="M24.1034 6.84357C23.9838 6.77946 23.8491 6.74901 23.7135 6.75545C23.578 6.76188 23.4467 6.80498 23.3337 6.88013L20 9.09826V6.74982C20 6.35199 19.842 5.97046 19.5607 5.68916C19.2794 5.40785 18.8978 5.24982 18.5 5.24982H11.0994C10.9005 5.24982 10.7097 5.32884 10.569 5.46949C10.4284 5.61014 10.3494 5.80091 10.3494 5.99982C10.3494 6.19873 10.4284 6.3895 10.569 6.53015C10.7097 6.6708 10.9005 6.74982 11.0994 6.74982H18.5V14.9651C18.5 15.164 18.579 15.3548 18.7197 15.4955C18.8603 15.6361 19.0511 15.7151 19.25 15.7151C19.4489 15.7151 19.6397 15.6361 19.7803 15.4955C19.921 15.3548 20 15.164 20 14.9651V14.9061L23.3337 17.1289C23.4576 17.2093 23.6024 17.2514 23.75 17.2498C23.9489 17.2498 24.1397 17.1708 24.2803 17.0301C24.421 16.8895 24.5 16.6987 24.5 16.4998V7.49982C24.4991 7.36487 24.4617 7.23268 24.3919 7.11719C24.3221 7.00169 24.2225 6.90716 24.1034 6.84357ZM23 15.0983L20 13.0986V10.9011L23 8.90607V15.0983ZM5.555 3.24544C5.48914 3.1712 5.40919 3.11077 5.3198 3.06765C5.23041 3.02453 5.13335 2.99958 5.03424 2.99425C4.93514 2.98892 4.83596 3.00331 4.74246 3.03659C4.64896 3.06987 4.56299 3.12137 4.48954 3.18812C4.41609 3.25487 4.35662 3.33554 4.31458 3.42544C4.27253 3.51534 4.24875 3.61269 4.24461 3.71186C4.24046 3.81102 4.25604 3.91002 4.29044 4.00311C4.32484 4.09621 4.37738 4.18155 4.445 4.25419L5.34969 5.24982H3.5C3.10218 5.24982 2.72064 5.40785 2.43934 5.68916C2.15804 5.97046 2 6.35199 2 6.74982V17.2498C2 17.6476 2.15804 18.0292 2.43934 18.3105C2.72064 18.5918 3.10218 18.7498 3.5 18.7498H17.6225L19.445 20.7542C19.5109 20.8284 19.5908 20.8889 19.6802 20.932C19.7696 20.9751 19.8667 21.0001 19.9658 21.0054C20.0649 21.0107 20.164 20.9963 20.2575 20.9631C20.351 20.9298 20.437 20.8783 20.5105 20.8115C20.5839 20.7448 20.6434 20.6641 20.6854 20.5742C20.7275 20.4843 20.7513 20.3869 20.7554 20.2878C20.7595 20.1886 20.744 20.0896 20.7096 19.9965C20.6752 19.9034 20.6226 19.8181 20.555 19.7454L5.555 3.24544ZM3.5 17.2498V6.74982H6.71375L16.2594 17.2498H3.5Z" fill="#FDFCFB"/>
</svg>
